<?xml version="1.0" encoding="UTF-8"?>
<svg xmlns="http://www.w3.org/2000/svg" xmlns:xlink="http://www.w3.org/1999/xlink" width="36pt" height="36.000001pt" viewBox="0 0 36 36.000001" version="1.2">
<defs>
<clipPath id="clip1">
  <path d="M 3.988281 3.503906 L 31.71875 3.503906 L 31.71875 31.234375 L 3.988281 31.234375 Z M 3.988281 3.503906 "/>
</clipPath>
</defs>
<g id="surface1">
<path style=" stroke:none;fill-rule:nonzero;fill:rgb(54.899597%,32.159424%,100%);fill-opacity:1;" d="M 12.761719 24.300781 L 18.785156 24.300781 C 21.910156 24.300781 23.789062 22.726562 23.789062 20.148438 C 23.789062 18.238281 22.472656 16.828125 20.488281 16.621094 L 20.488281 16.449219 C 21.933594 16.207031 23.058594 14.835938 23.058594 13.300781 C 23.058594 11.046875 21.402344 9.644531 18.652344 9.644531 L 12.761719 9.644531 Z M 15.039062 15.851562 L 15.039062 11.574219 L 18.121094 11.574219 C 19.808594 11.574219 20.796875 12.367188 20.796875 13.71875 C 20.796875 15.109375 19.75 15.851562 17.738281 15.851562 Z M 15.039062 22.371094 L 15.039062 17.648438 L 18.195312 17.648438 C 20.335938 17.648438 21.464844 18.449219 21.464844 19.984375 C 21.464844 21.539062 20.378906 22.371094 18.328125 22.371094 Z M 15.039062 22.371094 "/>
<g clip-path="url(#clip1)" clip-rule="nonzero">
<path style=" stroke:none;fill-rule:nonzero;fill:rgb(54.899597%,32.159424%,100%);fill-opacity:1;" d="M 3.988281 10.433594 C 3.988281 9.980469 4.035156 9.527344 4.121094 9.082031 C 4.210938 8.636719 4.34375 8.203125 4.515625 7.78125 C 4.691406 7.363281 4.90625 6.960938 5.15625 6.582031 C 5.410156 6.207031 5.699219 5.855469 6.019531 5.53125 C 6.339844 5.210938 6.691406 4.925781 7.070312 4.671875 C 7.449219 4.417969 7.847656 4.203125 8.269531 4.03125 C 8.6875 3.855469 9.121094 3.726562 9.570312 3.636719 C 10.015625 3.546875 10.464844 3.503906 10.921875 3.503906 L 24.785156 3.503906 C 25.242188 3.503906 25.691406 3.546875 26.140625 3.636719 C 26.585938 3.726562 27.019531 3.855469 27.4375 4.03125 C 27.859375 4.203125 28.257812 4.417969 28.636719 4.671875 C 29.015625 4.925781 29.367188 5.210938 29.6875 5.53125 C 30.011719 5.855469 30.296875 6.207031 30.550781 6.582031 C 30.804688 6.960938 31.015625 7.363281 31.191406 7.78125 C 31.367188 8.203125 31.496094 8.636719 31.585938 9.082031 C 31.675781 9.527344 31.71875 9.980469 31.71875 10.433594 L 31.71875 24.300781 C 31.71875 24.753906 31.675781 25.207031 31.585938 25.652344 C 31.496094 26.097656 31.367188 26.53125 31.191406 26.953125 C 31.015625 27.375 30.804688 27.773438 30.550781 28.152344 C 30.296875 28.53125 30.011719 28.878906 29.6875 29.203125 C 29.367188 29.523438 29.015625 29.8125 28.636719 30.0625 C 28.257812 30.316406 27.859375 30.53125 27.4375 30.703125 C 27.019531 30.878906 26.585938 31.011719 26.140625 31.097656 C 25.691406 31.1875 25.242188 31.234375 24.785156 31.234375 L 10.921875 31.234375 C 10.464844 31.234375 10.015625 31.1875 9.570312 31.097656 C 9.121094 31.011719 8.6875 30.878906 8.269531 30.703125 C 7.847656 30.53125 7.449219 30.316406 7.070312 30.0625 C 6.691406 29.8125 6.339844 29.523438 6.019531 29.203125 C 5.699219 28.878906 5.410156 28.53125 5.15625 28.152344 C 4.90625 27.773438 4.691406 27.375 4.515625 26.953125 C 4.34375 26.53125 4.210938 26.097656 4.121094 25.652344 C 4.035156 25.207031 3.988281 24.753906 3.988281 24.300781 Z M 10.921875 5.234375 C 10.582031 5.234375 10.242188 5.269531 9.90625 5.335938 C 9.574219 5.402344 9.246094 5.5 8.933594 5.632812 C 8.617188 5.761719 8.316406 5.921875 8.03125 6.113281 C 7.75 6.300781 7.488281 6.515625 7.246094 6.757812 C 7.003906 7 6.789062 7.261719 6.597656 7.546875 C 6.410156 7.832031 6.25 8.128906 6.117188 8.445312 C 5.988281 8.761719 5.890625 9.085938 5.820312 9.421875 C 5.753906 9.753906 5.722656 10.09375 5.722656 10.433594 L 5.722656 24.300781 C 5.722656 24.640625 5.753906 24.980469 5.820312 25.3125 C 5.890625 25.648438 5.988281 25.972656 6.117188 26.289062 C 6.25 26.605469 6.410156 26.90625 6.597656 27.1875 C 6.789062 27.472656 7.003906 27.734375 7.246094 27.976562 C 7.488281 28.21875 7.75 28.433594 8.03125 28.625 C 8.316406 28.8125 8.617188 28.972656 8.933594 29.105469 C 9.246094 29.234375 9.574219 29.332031 9.90625 29.398438 C 10.242188 29.464844 10.582031 29.5 10.921875 29.5 L 24.785156 29.5 C 25.128906 29.5 25.464844 29.464844 25.800781 29.398438 C 26.136719 29.332031 26.460938 29.234375 26.777344 29.105469 C 27.089844 28.972656 27.390625 28.8125 27.675781 28.625 C 27.957031 28.433594 28.222656 28.21875 28.464844 27.976562 C 28.703125 27.734375 28.917969 27.472656 29.109375 27.1875 C 29.300781 26.90625 29.460938 26.605469 29.589844 26.289062 C 29.71875 25.972656 29.820312 25.648438 29.886719 25.3125 C 29.953125 24.980469 29.984375 24.640625 29.984375 24.300781 L 29.984375 10.433594 C 29.984375 10.09375 29.953125 9.753906 29.886719 9.421875 C 29.820312 9.085938 29.71875 8.761719 29.589844 8.445312 C 29.460938 8.128906 29.300781 7.832031 29.109375 7.546875 C 28.917969 7.261719 28.703125 7 28.464844 6.757812 C 28.222656 6.515625 27.957031 6.300781 27.675781 6.113281 C 27.390625 5.921875 27.089844 5.761719 26.777344 5.632812 C 26.460938 5.5 26.136719 5.402344 25.800781 5.335938 C 25.464844 5.269531 25.128906 5.234375 24.785156 5.234375 Z M 10.921875 5.234375 "/>
</g>
</g>
</svg>
